<?xml version="1.0" encoding="UTF-8" standalone="no"?>
<!-- Created with Inkscape (http://www.inkscape.org/) -->
<svg
   xmlns:dc="http://purl.org/dc/elements/1.1/"
   xmlns:cc="http://web.resource.org/cc/"
   xmlns:rdf="http://www.w3.org/1999/02/22-rdf-syntax-ns#"
   xmlns:svg="http://www.w3.org/2000/svg"
   xmlns="http://www.w3.org/2000/svg"
   xmlns:xlink="http://www.w3.org/1999/xlink"
   xmlns:sodipodi="http://sodipodi.sourceforge.net/DTD/sodipodi-0.dtd"
   xmlns:inkscape="http://www.inkscape.org/namespaces/inkscape"
   version="1.0"
   width="245.28pt"
   height="245.88998pt"
   id="svg1372"
   sodipodi:version="0.32"
   inkscape:version="0.45.1"
   sodipodi:docname="Geological_hammer.svg"
   inkscape:output_extension="org.inkscape.output.svg.inkscape"
   sodipodi:docbase="C:\Users\ms609\Desktop">
  <metadata
     id="metadata32">
    <rdf:RDF>
      <cc:Work
         rdf:about="">
        <dc:format>image/svg+xml</dc:format>
        <dc:type
           rdf:resource="http://purl.org/dc/dcmitype/StillImage" />
      </cc:Work>
    </rdf:RDF>
  </metadata>
  <sodipodi:namedview
     inkscape:window-height="575"
     inkscape:window-width="765"
     inkscape:pageshadow="2"
     inkscape:pageopacity="0.0"
     guidetolerance="10.0"
     gridtolerance="10.0"
     objecttolerance="10.0"
     borderopacity="1.0"
     bordercolor="#666666"
     pagecolor="#ffffff"
     id="base"
     inkscape:zoom="1.2265648"
     inkscape:cx="153.3"
     inkscape:cy="153.68124"
     inkscape:window-x="397"
     inkscape:window-y="171"
     inkscape:current-layer="svg1372" />
  <defs
     id="defs1375">
    <linearGradient
       id="linearGradient19804">
      <stop
         style="stop-color:#000000;stop-opacity:1"
         offset="0"
         id="stop19806" />
      <stop
         style="stop-color:#46456d;stop-opacity:0.98969072"
         offset="1"
         id="stop19808" />
    </linearGradient>
    <linearGradient
       id="linearGradient18923">
      <stop
         style="stop-color:#3d3d56;stop-opacity:1"
         offset="0"
         id="stop18925" />
      <stop
         style="stop-color:#3d3d00;stop-opacity:0"
         offset="1"
         id="stop18927" />
    </linearGradient>
    <linearGradient
       id="linearGradient18034">
      <stop
         style="stop-color:#fe3838;stop-opacity:1"
         offset="0"
         id="stop18036" />
      <stop
         style="stop-color:#fe3838;stop-opacity:0"
         offset="1"
         id="stop18038" />
    </linearGradient>
    <linearGradient
       id="linearGradient8382">
      <stop
         style="stop-color:#151515;stop-opacity:1"
         offset="0"
         id="stop8384" />
      <stop
         style="stop-color:#666666;stop-opacity:0"
         offset="1"
         id="stop8386" />
    </linearGradient>
    <linearGradient
       id="linearGradient8374">
      <stop
         style="stop-color:#5d5d5d;stop-opacity:1"
         offset="0"
         id="stop8376" />
      <stop
         style="stop-color:#666666;stop-opacity:0"
         offset="1"
         id="stop8378" />
    </linearGradient>
    <linearGradient
       x1="154.82138"
       y1="409.61337"
       x2="230.64507"
       y2="409.61337"
       id="linearGradient18040"
       xlink:href="#linearGradient18034"
       gradientUnits="userSpaceOnUse"
       gradientTransform="matrix(-0.420628,0.414864,0.420628,0.414864,133.9311,-20.86358)" />
    <linearGradient
       x1="154.82138"
       y1="409.61337"
       x2="230.64507"
       y2="409.61337"
       id="linearGradient19810"
       xlink:href="#linearGradient19804"
       gradientUnits="userSpaceOnUse"
       gradientTransform="matrix(-0.420628,0.414864,0.420628,0.414864,133.9311,-20.86358)" />
  </defs>
  <path
     d="M 151.87898,5.47174 C 191.42981,11.78774 225.38088,34.12047 257.05351,62.97062 C 272.04615,79.00586 287.59134,94.49582 301.111,111.98372 L 285.23842,127.05358 L 255.71835,95.30479 C 249.6888,90.81492 240.33207,89.6067 231.24194,88.13569 C 230.83059,72.43562 226.19317,63.1794 218.10438,55.14429 C 199.71333,36.87579 170.74083,18.55356 151.87898,5.47174 z "
     style="fill:#7f7f77;fill-opacity:1;fill-rule:evenodd;stroke:#707064;stroke-width:0.29538241;stroke-linecap:butt;stroke-linejoin:miter;stroke-miterlimit:4;stroke-dasharray:none;stroke-opacity:1"
     id="path1381" />
  <path
     d="M 221.30293,58.43524 C 228.78368,72.68085 222.51835,80.11093 216.25945,86.81882 C 221.01085,86.62834 224.45829,85.15158 227.23678,83.01481 C 232.95686,77.07578 229.03331,66.80428 221.30293,58.43524 z "
     style="fill:#5c5c5c;fill-opacity:1;fill-rule:evenodd;stroke:#cbcbcb;stroke-width:0;stroke-linecap:butt;stroke-linejoin:miter;stroke-miterlimit:4;stroke-dasharray:none;stroke-opacity:1"
     id="path3129" />
  <path
     d="M 231.83526,103.35157 C 231.69833,97.77527 230.70323,88.50233 236.87889,89.01345 C 243.01753,89.35394 248.93673,91.20984 254.68002,94.28065 C 256.13242,95.04241 257.78171,97.1633 259.42684,99.25512 C 247.65228,96.04125 240.44244,98.19715 231.83526,103.35157 z "
     style="fill:#656565;fill-opacity:1;fill-rule:evenodd;stroke:#c8c8c8;stroke-width:0;stroke-linecap:butt;stroke-linejoin:miter;stroke-miterlimit:4;stroke-dasharray:none;stroke-opacity:1"
     id="path4878" />
  <path
     d="M 229.1651,70.87135 C 228.70267,75.29212 228.20326,80.84704 225.90161,83.45392 C 220.66173,86.08587 219.34271,86.31383 216.25945,86.81882 L 146.83535,153.82771 C 144.12356,154.95739 142.27248,158.10607 143.42351,161.87471 C 146.88272,164.14942 150.96459,164.04961 154.54914,161.43591 L 231.68692,88.57464 C 232.09103,82.22636 230.66822,75.3387 229.1651,70.87135 z "
     style="opacity:1;fill:#666666;fill-opacity:1;fill-rule:nonzero;stroke:#b7b7b7;stroke-width:0;stroke-linecap:butt;stroke-linejoin:miter;stroke-miterlimit:4;stroke-dasharray:none;stroke-opacity:1"
     id="path6626" />
  <path
     d="M 231.53858,87.55041 L 236.87889,89.01345 C 235.17694,89.70425 233.54784,90.76031 233.17042,92.67111 C 231.18214,96.67366 232.53181,99.48116 232.72539,102.76656 L 162.70792,168.89756 C 160.33452,171.47016 157.15644,174.57159 153.06566,172.55519 C 150.11068,167.49512 150.59332,164.00724 153.51063,161.58214 L 231.53858,87.55041 z "
     style="fill:#707070;fill-opacity:1;fill-rule:evenodd;stroke:#b4b4b4;stroke-width:0;stroke-linecap:butt;stroke-linejoin:miter;stroke-miterlimit:4;stroke-dasharray:none;stroke-opacity:1"
     id="path9291" />
  <path
     d="M 231.83525,103.35157 C 233.67529,102.00408 242.21082,90.37309 259.27847,98.81601 L 285.53509,127.05358 L 285.68343,129.8333 C 276.18102,120.55447 267.3675,110.66535 258.68517,102.3274 C 251.18363,94.67576 240.09727,99.20035 231.83525,103.35157 z "
     style="fill:#70706d;fill-opacity:1;fill-rule:evenodd;stroke:#717171;stroke-width:0;stroke-linecap:butt;stroke-linejoin:miter;stroke-miterlimit:4;stroke-dasharray:none;stroke-opacity:1"
     id="path11040" />
  <path
     d="M 301.24214,112.00978 L 300.96267,117.68976 L 289.24365,129.2482 L 285.67438,129.85856 L 285.52603,127.07051 L 301.24214,112.00978 z "
     style="fill:#999992;fill-opacity:1;fill-rule:evenodd;stroke:#000000;stroke-width:0;stroke-linecap:butt;stroke-linejoin:miter;stroke-miterlimit:4;stroke-dasharray:none;stroke-opacity:1"
     id="path12788" />
  <path
     d="M 301.13725,111.84487 C 296.81736,115.92499 290.52602,121.94942 285.35151,126.8725"
     style="fill:#000000;fill-opacity:1;fill-rule:evenodd;stroke:#787872;stroke-width:0.59076482px;stroke-linecap:butt;stroke-linejoin:miter;stroke-opacity:1"
     id="path13663" />
  <path
     d="M 147.42868,153.38889 L 137.48985,158.0708 C 143.70197,166.3794 150.34897,172.65002 157.44168,177.74922 L 163.15295,168.45864 C 160.42638,169.93015 158.43228,171.01922 153.36231,171.6773 C 150.18888,168.79458 152.73674,162.80451 153.36231,162.02099 C 150.39545,162.8013 147.32987,162.02099 143.72017,161.87471 C 142.87554,158.36924 145.47125,155.64093 147.42868,153.38889 z "
     style="fill:#72726e;fill-opacity:1;fill-rule:evenodd;stroke:#73736e;stroke-width:0.29538241;stroke-linecap:butt;stroke-linejoin:miter;stroke-miterlimit:4;stroke-dasharray:none;stroke-opacity:1"
     id="path13665" />
  <path
     d="M 137.45273,157.88789 L 110.49161,178.55384 L 26.233339,256.68213 C 19.625519,262.07264 12.551559,269.30249 6.6520694,271.89819 C 5.0502894,274.57633 5.8171894,276.92067 6.9488994,279.21354 C 13.723489,288.31378 22.422909,296.27497 31.128529,304.23213 C 32.978769,305.00045 34.745579,306.01505 37.358969,304.52496 C 44.016359,292.62208 64.437989,274.68592 78.004689,259.75466 L 136.45136,202.40199 L 157.51599,177.8224 C 149.85131,172.11656 143.13927,165.54451 137.45273,157.88789 z "
     style="fill:url(#linearGradient19810);fill-opacity:1;fill-rule:evenodd;stroke:url(#linearGradient18040);stroke-width:0;stroke-linecap:butt;stroke-linejoin:miter;stroke-miterlimit:4;stroke-dasharray:none;stroke-opacity:1"
     id="path16286" />
</svg>
